<?xml version="1.0"?>
<svg width="250mm" height="200mm" viewBox="0 0 3200 1500"
     xmlns="http://www.w3.org/2000/svg"
     xmlns:xlink="http://www.w3.org/1999/xlink"
     xmlns:ev="http://www.w3.org/2001/xml-events">
<g font-family="Verdana" font-size="8">
  <line x1="600" y1="350" x2="600" y2="430" style="stroke:silver;"/>
  <line x1="900" y1="110" x2="300" y2="430" style="stroke:silver;"/>
  <rect x="1700" y="20" width="200" height="20" style="fill:chartreuse; stroke: black;"/>1
  <text x="1702" y="33">LIVING_UNIT1</text>
  <rect x="450" y="20" width="200" height="20" style="fill:skyblue; stroke: black;"/>2
  <text x="452" y="33">DX COOLING COIL_UNIT1</text>
  <rect x="700" y="20" width="200" height="20" style="fill:salmon; stroke: black;"/>3
  <text x="702" y="33">MAIN DX HEATING COIL_UNIT1</text>
  <rect x="500" y="340" width="200" height="20" style="fill:aliceblue; stroke: black;"/>4
  <text  x="502" y="348">HEAT PUMP WATER HEATER
  <tspan x="502" y="356">EVAPORATOR_UNIT1</tspan></text>
  <rect x="200" y="340" width="200" height="20" style="fill:snow; stroke: black;"/>5
  <text x="202" y="353">OutdoorAir:Node</text>
  <rect x="500" y="420" width="200" height="20" style="fill:aliceblue; stroke: black;"/>6
  <text  x="502" y="428">HEAT PUMP WATER HEATER
  <tspan x="502" y="436">EVAPORATOR_UNIT1</tspan></text>
  <rect x="200" y="20" width="200" height="20" style="fill:silver; stroke: black;"/>8
  <text x="202" y="33">SUPPLY FAN_UNIT1</text>
  <rect x="800" y="340" width="200" height="20" style="fill:silver; stroke: black;"/>9
  <text x="802" y="353">HEAT PUMP WATER HEATER FAN_UNIT1</text>
  <rect x="800" y="100" width="200" height="20" style="fill:orange; stroke: black;"/>10
  <text x="802" y="113">WATER HEATER_TANK_UNIT1</text>
  <rect x="200" y="420" width="200" height="20" style="fill:orange; stroke: black;"/>11
  <text x="202" y="433">WATER HEATER_TANK_UNIT1</text>
  <rect x="1700" y="100" width="200" height="20" style="fill:wheat; stroke: black;"/>13
  <text x="1702" y="113">DHW DEMAND INLET PIPE_UNIT1</text>
  <rect x="1400" y="100" width="200" height="20" style="fill:wheat; stroke: black;"/>14
  <text x="1402" y="113">DHW SUPPLY OUTLET PIPE_UNIT1</text>
  <rect x="2300" y="100" width="200" height="20" style="fill:wheat; stroke: black;"/>15
  <text x="2302" y="113">DHW SINKS_UNIT1</text>
  <rect x="2300" y="140" width="200" height="20" style="fill:wheat; stroke: black;"/>16
  <text x="2302" y="153">DHW SHOWERS_UNIT1</text>
  <rect x="2300" y="180" width="200" height="20" style="fill:wheat; stroke: black;"/>17
  <text x="2302" y="193">DHW CLOTHESWASHER_UNIT1</text>
  <rect x="2300" y="220" width="200" height="20" style="fill:wheat; stroke: black;"/>18
  <text x="2302" y="233">DHW DISHWASHER_UNIT1</text>
  <rect x="2300" y="260" width="200" height="20" style="fill:wheat; stroke: black;"/>19
  <text x="2302" y="273">DHW BATHS_UNIT1</text>
  <rect x="2900" y="260" width="200" height="20" style="fill:wheat; stroke: black;"/>20
  <text x="2902" y="273">MAINS MAKEUP PIPE_UNIT1</text>
  <rect x="2000" y="100" width="200" height="20" style="fill:wheat; stroke: black;"/>21
  <text x="2002" y="113">DHW DEMAND SPLITTER_UNIT1</text>
  <rect x="2600" y="260" width="200" height="20" style="fill:wheat; stroke: black;"/>22
  <text x="2602" y="273">DHW DEMAND MIXER_UNIT1</text>
  <rect x="500" y="100" width="200" height="20" style="fill:wheat; stroke: black;"/>23
  <text x="502" y="113">DHW SUPPLY SPLITTER_UNIT1</text>
  <rect x="1100" y="100" width="200" height="20" style="fill:wheat; stroke: black;"/>24
  <text x="1102" y="113">DHW SUPPLY MIXER_UNIT1</text>
  <rect x="1200" y="20" width="200" height="20" style="fill:wheat; stroke: black;"/>25
  <text x="1202" y="33">ZONE SUPPLY AIR SPLITTER_UNIT1</text>
  <rect x="1450" y="20" width="200" height="20" style="fill:snow; stroke: black;"/>26
  <text x="1452" y="33">ZONEDIRECTAIR_UNIT1</text>
  <rect x="1950" y="20" width="200" height="20" style="fill:wheat; stroke: black;"/>27
  <text x="1952" y="33">ZONE RETURN AIR MIXER_UNIT1</text>
  <rect x="950" y="20" width="200" height="20" style="fill:salmon; stroke: black;"/>28
  <text x="952" y="33">SUPP HEATING COIL_UNIT1</text>
  <rect x="200" y="100" width="200" height="20" style="fill:springgreen; stroke: black;"/>29
  <text x="202" y="113">MAINS PRESSURE_UNIT1</text>
  <line x1="650" y1="30" x2="700" y2="30" style="stroke:black;"/>
  <line x1="900" y1="30" x2="950" y2="30" style="stroke:black;"/>
  <line x1="700" y1="350" x2="800" y2="350" style="stroke:black;"/>
  <line x1="400" y1="350" x2="500" y2="350" style="stroke:black;"/>
  <line x1="400" y1="30" x2="450" y2="30" style="stroke:black;"/>
  <line x1="1000" y1="110" x2="1100" y2="110" style="stroke:black;"/>
  <line x1="400" y1="430" x2="500" y2="430" style="stroke:black;"/>
  <line x1="1900" y1="110" x2="2000" y2="110" style="stroke:black;"/>
  <line x1="1600" y1="110" x2="1700" y2="110" style="stroke:black;"/>
  <line x1="2500" y1="110" x2="2600" y2="270" style="stroke:black;"/>
  <line x1="2500" y1="150" x2="2600" y2="270" style="stroke:black;"/>
  <line x1="2500" y1="190" x2="2600" y2="270" style="stroke:black;"/>
  <line x1="2500" y1="230" x2="2600" y2="270" style="stroke:black;"/>
  <line x1="2500" y1="270" x2="2600" y2="270" style="stroke:black;"/>
  <line x1="2200" y1="110" x2="2300" y2="110" style="stroke:black;"/>
  <line x1="2200" y1="110" x2="2300" y2="150" style="stroke:black;"/>
  <line x1="2200" y1="110" x2="2300" y2="190" style="stroke:black;"/>
  <line x1="2200" y1="110" x2="2300" y2="230" style="stroke:black;"/>
  <line x1="2200" y1="110" x2="2300" y2="270" style="stroke:black;"/>
  <line x1="2800" y1="270" x2="2900" y2="270" style="stroke:black;"/>
  <line x1="700" y1="110" x2="800" y2="110" style="stroke:black;"/>
  <line x1="1300" y1="110" x2="1400" y2="110" style="stroke:black;"/>
  <line x1="1400" y1="30" x2="1450" y2="30" style="stroke:black;"/>
  <line x1="1650" y1="30" x2="1700" y2="30" style="stroke:black;"/>
  <line x1="1150" y1="30" x2="1200" y2="30" style="stroke:black;"/>
  <line x1="400" y1="110" x2="500" y2="110" style="stroke:black;"/>
  <line x1="1900" y1="30" x2="1950" y2="30" style="stroke:black;"/>
  <line x1="200" y1="30" x2="175" y2="30" style="stroke:black;"/>
  <line x1="175" y1="30" x2="175" y2="0" style="stroke:black;"/>
  <line x1="175" y1="0" x2="2175" y2="0" style="stroke:black;"/>
  <line x1="2175" y1="0" x2="2175" y2="30" style="stroke:black;"/>
  <line x1="2175" y1="30" x2="2150" y2="30" style="stroke:black;"/>
  <line x1="200" y1="110" x2="175" y2="110" style="stroke:black;"/>
  <line x1="175" y1="110" x2="175" y2="80" style="stroke:black;"/>
  <line x1="175" y1="80" x2="3125" y2="80" style="stroke:black;"/>
  <line x1="3125" y1="80" x2="3125" y2="270" style="stroke:black;"/>
  <line x1="3125" y1="270" x2="3100" y2="270" style="stroke:black;"/>
  <line x1="200" y1="430" x2="175" y2="430" style="stroke:black;"/>
  <line x1="175" y1="430" x2="175" y2="400" style="stroke:black;"/>
  <line x1="175" y1="400" x2="725" y2="400" style="stroke:black;"/>
  <line x1="725" y1="400" x2="725" y2="430" style="stroke:black;"/>
  <line x1="725" y1="430" x2="700" y2="430" style="stroke:black;"/>
  <text x="200" y="480">Unused Non-Parent Objects:</text>
  <text x="220" y="500">ZONE EXHAUST FAN_UNIT1</text>
  <text x="220" y="520">DHW LOOP SETPOINT MANAGER_UNIT1</text>
  <text x="200" y="560">
The following are not supported: objects related to controls or ZoneHVAC:IdealLoadsAirSystem</text>
</g>
</svg>
